<svg height="660" width="660"
    xmlns="http://www.w3.org/2000/svg"
    xmlns:xlink="http://www.w3.org/1999/xlink"
    xmlns:ev="http://www.w3.org/2001/xml-events">
<title>Original Bottom Strand</title>
<rect x="0" y="0" width="660" height="660" fill="white" />
<text x="330" y="20" text-anchor="middle">Original Bottom Strand</text>
<line x1="80" y1="80" x2="80" y2="580" stroke="black" />
<line x1="80" y1="580" x2="580" y2="580" stroke="black" />
<text x="15" y="330" transform="rotate(270 15, 330)" text-anchor="middle" dominant-baseline="text-before-edge">CpG/CHG/CHH Methylation %</text>
<text x="330" y="620" text-anchor="middle">Position along mapped read (5'->3' of + strand)</text>
<line x1="80" y1="580" x2="80" y2="585" stroke="black" />
<text x="80" y="600" text-anchor="middle">0</text>
<line x1="120.000000" y1="80" x2="120.000000" y2="580" stroke-dasharray="5 5" stroke="grey" />
<line x1="120.000000" y1="580" x2="120.000000" y2="585" stroke="black" />
<text x="120.000000" y="600" text-anchor="middle">10</text>
<line x1="160.000000" y1="80" x2="160.000000" y2="580" stroke-dasharray="5 5" stroke="grey" />
<line x1="160.000000" y1="580" x2="160.000000" y2="585" stroke="black" />
<text x="160.000000" y="600" text-anchor="middle">20</text>
<line x1="200.000000" y1="80" x2="200.000000" y2="580" stroke-dasharray="5 5" stroke="grey" />
<line x1="200.000000" y1="580" x2="200.000000" y2="585" stroke="black" />
<text x="200.000000" y="600" text-anchor="middle">30</text>
<line x1="240.000000" y1="80" x2="240.000000" y2="580" stroke-dasharray="5 5" stroke="grey" />
<line x1="240.000000" y1="580" x2="240.000000" y2="585" stroke="black" />
<text x="240.000000" y="600" text-anchor="middle">40</text>
<line x1="280.000000" y1="80" x2="280.000000" y2="580" stroke-dasharray="5 5" stroke="grey" />
<line x1="280.000000" y1="580" x2="280.000000" y2="585" stroke="black" />
<text x="280.000000" y="600" text-anchor="middle">50</text>
<line x1="320.000000" y1="80" x2="320.000000" y2="580" stroke-dasharray="5 5" stroke="grey" />
<line x1="320.000000" y1="580" x2="320.000000" y2="585" stroke="black" />
<text x="320.000000" y="600" text-anchor="middle">60</text>
<line x1="360.000000" y1="80" x2="360.000000" y2="580" stroke-dasharray="5 5" stroke="grey" />
<line x1="360.000000" y1="580" x2="360.000000" y2="585" stroke="black" />
<text x="360.000000" y="600" text-anchor="middle">70</text>
<line x1="400.000000" y1="80" x2="400.000000" y2="580" stroke-dasharray="5 5" stroke="grey" />
<line x1="400.000000" y1="580" x2="400.000000" y2="585" stroke="black" />
<text x="400.000000" y="600" text-anchor="middle">80</text>
<line x1="440.000000" y1="80" x2="440.000000" y2="580" stroke-dasharray="5 5" stroke="grey" />
<line x1="440.000000" y1="580" x2="440.000000" y2="585" stroke="black" />
<text x="440.000000" y="600" text-anchor="middle">90</text>
<line x1="480.000000" y1="80" x2="480.000000" y2="580" stroke-dasharray="5 5" stroke="grey" />
<line x1="480.000000" y1="580" x2="480.000000" y2="585" stroke="black" />
<text x="480.000000" y="600" text-anchor="middle">100</text>
<line x1="520.000000" y1="80" x2="520.000000" y2="580" stroke-dasharray="5 5" stroke="grey" />
<line x1="520.000000" y1="580" x2="520.000000" y2="585" stroke="black" />
<text x="520.000000" y="600" text-anchor="middle">110</text>
<line x1="560.000000" y1="80" x2="560.000000" y2="580" stroke-dasharray="5 5" stroke="grey" />
<line x1="560.000000" y1="580" x2="560.000000" y2="585" stroke="black" />
<text x="560.000000" y="600" text-anchor="middle">120</text>
<line x1="80" y1="580.000000" x2="75" y2="580.000000" stroke="black" />
<text x="55" y="580.000000" text-anchor="middle" dominant-baseline="middle">0.00</text>
<line x1="80" y1="80.000000" x2="75" y2="80.000000" stroke="black" />
<text x="55" y="80.000000" text-anchor="middle" dominant-baseline="middle">0.05</text>
<path d="M 140.000000 456.909711
  L 144.000000 452.046575
  L 148.000000 460.902269
  L 152.000000 461.819097
  L 156.000000 465.941276
  L 160.000000 475.143262
  L 164.000000 470.731822
  L 168.000000 475.732038
  L 172.000000 474.372809
  L 176.000000 478.441248
  L 180.000000 477.510475
  L 184.000000 481.175716
  L 188.000000 482.874713
  L 192.000000 479.870714
  L 196.000000 487.097094
  L 200.000000 485.720168
  L 204.000000 480.782084
  L 208.000000 486.584786
  L 212.000000 487.518540
  L 216.000000 487.268025
  L 220.000000 484.961123
  L 224.000000 490.196555
  L 228.000000 487.461825
  L 232.000000 479.882865
  L 236.000000 486.560696
  L 240.000000 483.359657
  L 244.000000 487.420913
  L 248.000000 485.284013
  L 252.000000 483.685436
  L 256.000000 485.660533
  L 260.000000 490.886005
  L 264.000000 485.939195
  L 268.000000 491.315082
  L 272.000000 489.883535
  L 276.000000 488.705176
  L 280.000000 484.787483
  L 284.000000 486.842411
  L 288.000000 490.696111
  L 292.000000 487.084816
  L 296.000000 489.045564
  L 300.000000 488.101961
  L 304.000000 490.257020
  L 308.000000 493.339999
  L 312.000000 490.896302
  L 316.000000 487.384562
  L 320.000000 486.566498
  L 324.000000 489.177464
  L 328.000000 485.497486
  L 332.000000 496.231536
  L 336.000000 490.164224
  L 340.000000 484.724359
  L 344.000000 493.694909
  L 348.000000 493.764943
  L 352.000000 487.704675
  L 356.000000 486.185093
  L 360.000000 493.956151
  L 364.000000 488.401725
  L 368.000000 493.416289
  L 372.000000 486.713222
  L 376.000000 491.569256
  L 380.000000 486.381010
  L 384.000000 492.943224
  L 388.000000 484.225726
  L 392.000000 489.555132
  L 396.000000 490.123345
  L 400.000000 496.463222
  L 404.000000 486.429341
  L 408.000000 485.918970
  L 412.000000 487.148626
  L 416.000000 490.295183
  L 420.000000 484.341450
  L 424.000000 492.110480
  L 428.000000 488.970870
  L 432.000000 488.291173
  L 436.000000 490.106155
  L 440.000000 489.229203
  L 444.000000 492.535787
  L 448.000000 487.726758
  L 452.000000 489.779029
  L 456.000000 484.734586
  L 460.000000 484.855155
  L 464.000000 484.853906
  L 468.000000 485.389313
  L 472.000000 489.123149
  L 476.000000 490.548352
  L 480.000000 488.978609
  L 484.000000 491.190246
  L 488.000000 487.379994
  L 492.000000 487.423232
  L 496.000000 490.822390
  L 500.000000 489.689061
  L 504.000000 491.653896
  L 508.000000 490.741722
  L 512.000000 490.598055
  L 516.000000 491.309959
  L 520.000000 489.389574
  L 524.000000 488.776319
  L 528.000000 482.535235
  L 532.000000 494.425489
  L 536.000000 489.192279
  L 540.000000 491.044222
  L 544.000000 487.766097
  L 548.000000 490.279651
  L 552.000000 487.776179
  L 556.000000 488.509112
  L 560.000000 493.569440
  L 564.000000 490.031851
  L 568.000000 486.046781
  L 572.000000 492.613252
  L 576.000000 489.103348
  L 580.000000 485.959925
  L 580.000000 464.475666
  L 576.000000 467.960655
  L 572.000000 471.807447
  L 568.000000 464.535206
  L 564.000000 468.936465
  L 560.000000 472.916792
  L 556.000000 467.300772
  L 552.000000 466.470570
  L 548.000000 469.314077
  L 544.000000 466.481903
  L 540.000000 470.052067
  L 536.000000 467.998204
  L 532.000000 473.816531
  L 528.000000 460.687460
  L 524.000000 467.605785
  L 520.000000 468.289225
  L 516.000000 470.428598
  L 512.000000 469.610596
  L 508.000000 469.751577
  L 504.000000 470.719593
  L 500.000000 468.622249
  L 496.000000 469.863192
  L 492.000000 466.095961
  L 488.000000 466.054649
  L 484.000000 470.268763
  L 480.000000 467.830949
  L 476.000000 469.549291
  L 472.000000 467.937112
  L 468.000000 463.834258
  L 464.000000 463.236256
  L 460.000000 463.295986
  L 456.000000 463.101678
  L 452.000000 468.709138
  L 448.000000 466.409798
  L 444.000000 471.748418
  L 440.000000 468.091722
  L 436.000000 469.028094
  L 432.000000 466.936517
  L 428.000000 467.845228
  L 424.000000 471.283768
  L 420.000000 462.724634
  L 416.000000 469.297295
  L 412.000000 465.805779
  L 408.000000 464.401894
  L 404.000000 465.028306
  L 400.000000 476.157986
  L 396.000000 469.145347
  L 392.000000 468.505031
  L 388.000000 462.571326
  L 384.000000 472.215549
  L 380.000000 464.945511
  L 376.000000 470.676041
  L 372.000000 465.329876
  L 368.000000 472.764033
  L 364.000000 467.144759
  L 360.000000 473.334052
  L 356.000000 464.716771
  L 352.000000 466.418234
  L 348.000000 473.183204
  L 344.000000 473.010541
  L 340.000000 463.018713
  L 336.000000 469.159857
  L 332.000000 475.944844
  L 328.000000 463.931751
  L 324.000000 468.039967
  L 320.000000 465.126137
  L 316.000000 466.095632
  L 312.000000 469.930211
  L 308.000000 472.706276
  L 304.000000 469.238230
  L 300.000000 466.787818
  L 296.000000 467.877545
  L 292.000000 465.703751
  L 288.000000 469.767602
  L 284.000000 465.429589
  L 280.000000 463.236240
  L 276.000000 467.530135
  L 272.000000 468.777768
  L 268.000000 470.410745
  L 264.000000 464.414934
  L 260.000000 469.844506
  L 256.000000 464.120042
  L 252.000000 461.932904
  L 248.000000 463.705110
  L 244.000000 466.104934
  L 240.000000 461.533993
  L 236.000000 465.142592
  L 232.000000 457.768436
  L 228.000000 466.178790
  L 224.000000 469.127483
  L 220.000000 463.332587
  L 216.000000 465.893344
  L 212.000000 466.141831
  L 208.000000 465.148598
  L 204.000000 458.717564
  L 200.000000 464.204949
  L 196.000000 465.742471
  L 192.000000 457.776261
  L 188.000000 460.998588
  L 184.000000 459.186775
  L 180.000000 455.126531
  L 176.000000 456.113201
  L 172.000000 451.614595
  L 168.000000 453.131752
  L 164.000000 447.631440
  L 160.000000 452.472208
  L 156.000000 442.364094
  L 152.000000 437.774107
  L 148.000000 436.840654
  L 144.000000 427.133541
  L 140.000000 432.344021
Z" fill="rgb(248,118,109)" fill-opacity="0.2"/>
<path d="M 84.000000 493.265639
  L 88.000000 486.167514
  L 92.000000 489.563278
  L 96.000000 485.984099
  L 100.000000 489.706646
  L 104.000000 491.042768
  L 108.000000 493.636198
  L 112.000000 491.074912
  L 116.000000 489.478287
  L 120.000000 486.230924
  L 124.000000 489.275252
  L 128.000000 496.915564
  L 132.000000 486.611452
  L 136.000000 486.770350
  L 140.000000 492.042846
  L 144.000000 487.240098
  L 148.000000 490.177578
  L 152.000000 493.330655
  L 156.000000 489.817203
  L 160.000000 493.772309
  L 164.000000 489.844031
  L 168.000000 488.018792
  L 172.000000 484.098563
  L 176.000000 492.193991
  L 180.000000 485.309385
  L 184.000000 485.907499
  L 188.000000 488.063783
  L 192.000000 491.525459
  L 196.000000 487.569590
  L 200.000000 489.375770
  L 204.000000 487.524999
  L 208.000000 490.093925
  L 212.000000 493.032064
  L 216.000000 492.126672
  L 220.000000 486.692738
  L 224.000000 492.729093
  L 228.000000 490.168332
  L 232.000000 496.687698
  L 236.000000 489.175051
  L 240.000000 484.425727
  L 244.000000 489.917420
  L 248.000000 485.402946
  L 252.000000 487.804519
  L 256.000000 497.168616
  L 260.000000 488.553310
  L 264.000000 488.864325
  L 268.000000 489.910576
  L 272.000000 492.042260
  L 276.000000 490.266248
  L 280.000000 486.772273
  L 284.000000 493.382886
  L 288.000000 488.306958
  L 292.000000 485.589440
  L 296.000000 487.274524
  L 300.000000 487.926947
  L 304.000000 490.222569
  L 308.000000 490.436377
  L 312.000000 490.308077
  L 316.000000 483.791891
  L 320.000000 487.545614
  L 324.000000 489.398157
  L 328.000000 486.077789
  L 332.000000 485.263810
  L 336.000000 491.447969
  L 340.000000 492.463458
  L 344.000000 486.358574
  L 348.000000 485.225524
  L 352.000000 487.487911
  L 356.000000 493.769244
  L 360.000000 486.318607
  L 364.000000 484.861494
  L 368.000000 495.088692
  L 372.000000 487.517470
  L 376.000000 490.398227
  L 380.000000 488.760562
  L 384.000000 486.491143
  L 388.000000 493.981740
  L 392.000000 481.728804
  L 396.000000 492.540713
  L 400.000000 484.907580
  L 404.000000 489.688540
  L 408.000000 487.536613
  L 412.000000 487.679576
  L 416.000000 487.441021
  L 420.000000 488.982406
  L 424.000000 488.741962
  L 428.000000 478.304768
  L 432.000000 486.023669
  L 436.000000 486.502134
  L 440.000000 486.760733
  L 444.000000 481.453492
  L 448.000000 488.051267
  L 452.000000 484.578738
  L 456.000000 487.573047
  L 460.000000 487.745979
  L 464.000000 485.620691
  L 468.000000 488.862514
  L 472.000000 487.322098
  L 476.000000 488.920143
  L 480.000000 480.496247
  L 484.000000 479.718984
  L 488.000000 473.220577
  L 492.000000 477.148301
  L 496.000000 468.222942
  L 500.000000 472.508991
  L 504.000000 463.629698
  L 508.000000 461.503792
  L 512.000000 459.846058
  L 516.000000 451.631988
  L 520.000000 441.869056
  L 524.000000 450.520827
  L 524.000000 425.444529
  L 520.000000 415.978541
  L 516.000000 426.679181
  L 512.000000 435.708270
  L 508.000000 437.458405
  L 504.000000 439.898289
  L 500.000000 449.597283
  L 496.000000 444.859167
  L 492.000000 454.708277
  L 488.000000 450.393798
  L 484.000000 457.477200
  L 480.000000 458.380036
  L 476.000000 467.662917
  L 472.000000 465.900247
  L 468.000000 467.664123
  L 464.000000 464.047604
  L 460.000000 466.445311
  L 456.000000 466.268266
  L 452.000000 462.898942
  L 448.000000 466.761296
  L 444.000000 459.434253
  L 440.000000 465.329247
  L 436.000000 465.094205
  L 432.000000 464.542151
  L 428.000000 455.992217
  L 424.000000 467.503692
  L 420.000000 467.906800
  L 416.000000 466.046498
  L 412.000000 466.327950
  L 408.000000 466.187884
  L 404.000000 468.525249
  L 400.000000 463.348622
  L 396.000000 471.778923
  L 392.000000 459.770703
  L 388.000000 473.402605
  L 384.000000 465.092445
  L 380.000000 467.610175
  L 376.000000 469.376202
  L 372.000000 466.188104
  L 368.000000 474.613886
  L 364.000000 463.233863
  L 360.000000 464.904111
  L 356.000000 473.127251
  L 352.000000 466.199065
  L 348.000000 463.621633
  L 344.000000 464.929718
  L 340.000000 471.597541
  L 336.000000 470.538419
  L 332.000000 463.656840
  L 328.000000 464.596822
  L 324.000000 468.275866
  L 320.000000 466.210835
  L 316.000000 462.074863
  L 312.000000 469.313190
  L 308.000000 469.386967
  L 304.000000 469.135338
  L 300.000000 466.644094
  L 296.000000 465.865635
  L 292.000000 463.985618
  L 288.000000 467.063948
  L 284.000000 472.661265
  L 280.000000 465.343423
  L 276.000000 469.249607
  L 272.000000 471.223816
  L 268.000000 468.871232
  L 264.000000 467.725985
  L 260.000000 467.355156
  L 256.000000 476.896702
  L 252.000000 466.493530
  L 248.000000 463.850978
  L 244.000000 468.855676
  L 240.000000 462.711375
  L 236.000000 467.989021
  L 232.000000 476.298708
  L 228.000000 469.128888
  L 224.000000 472.011775
  L 220.000000 465.257554
  L 216.000000 471.352337
  L 212.000000 472.264054
  L 208.000000 469.049194
  L 204.000000 466.221036
  L 200.000000 468.248290
  L 196.000000 466.216532
  L 192.000000 470.634105
  L 188.000000 466.847887
  L 184.000000 464.399584
  L 180.000000 463.736228
  L 176.000000 471.338104
  L 172.000000 462.380661
  L 168.000000 466.757045
  L 164.000000 468.777240
  L 160.000000 473.155619
  L 156.000000 468.732161
  L 152.000000 472.670318
  L 148.000000 469.140288
  L 144.000000 465.918155
  L 140.000000 471.248803
  L 136.000000 465.341061
  L 132.000000 465.228407
  L 128.000000 476.682424
  L 124.000000 468.088382
  L 120.000000 464.737675
  L 116.000000 468.374571
  L 112.000000 470.150612
  L 108.000000 473.036109
  L 104.000000 470.013623
  L 100.000000 468.631940
  L 96.000000 464.505330
  L 92.000000 468.443289
  L 88.000000 464.718684
  L 84.000000 472.503755
Z" fill="rgb(0,191,196)" fill-opacity="0.2"/>
<path d="M 140.000000 445.176512
  L 144.000000 440.134792
  L 148.000000 449.416092
  L 152.000000 450.344398
  L 156.000000 454.697849
  L 160.000000 464.354234
  L 164.000000 459.727037
  L 168.000000 464.977956
  L 172.000000 463.540533
  L 176.000000 467.823823
  L 180.000000 466.863155
  L 184.000000 470.725549
  L 188.000000 472.484234
  L 192.000000 469.366240
  L 196.000000 476.964405
  L 200.000000 475.507652
  L 204.000000 470.295707
  L 208.000000 476.412538
  L 212.000000 477.378130
  L 216.000000 477.127189
  L 220.000000 474.693414
  L 224.000000 480.209488
  L 228.000000 477.363407
  L 232.000000 469.369395
  L 236.000000 476.396489
  L 240.000000 472.994500
  L 244.000000 477.307400
  L 248.000000 475.040428
  L 252.000000 473.355040
  L 256.000000 475.436283
  L 260.000000 480.915187
  L 264.000000 475.723745
  L 268.000000 481.408451
  L 272.000000 479.878202
  L 276.000000 478.662176
  L 280.000000 474.553823
  L 284.000000 476.682084
  L 288.000000 480.775162
  L 292.000000 476.940120
  L 296.000000 479.007577
  L 300.000000 477.992931
  L 304.000000 480.292954
  L 308.000000 483.566603
  L 312.000000 480.959519
  L 316.000000 477.283071
  L 320.000000 476.392268
  L 324.000000 479.153962
  L 328.000000 475.260971
  L 332.000000 486.630845
  L 336.000000 480.206152
  L 340.000000 474.420556
  L 344.000000 483.900742
  L 348.000000 484.017355
  L 352.000000 477.606014
  L 356.000000 475.996214
  L 360.000000 484.191494
  L 364.000000 478.320116
  L 368.000000 483.634983
  L 372.000000 476.565524
  L 376.000000 481.669052
  L 380.000000 476.207995
  L 384.000000 483.125289
  L 388.000000 473.942505
  L 392.000000 479.573109
  L 396.000000 480.176940
  L 400.000000 486.855554
  L 404.000000 476.272152
  L 408.000000 475.706660
  L 412.000000 477.021530
  L 416.000000 480.340750
  L 420.000000 474.075827
  L 424.000000 482.243260
  L 428.000000 478.951597
  L 432.000000 478.164890
  L 436.000000 480.114538
  L 440.000000 479.205990
  L 444.000000 482.688676
  L 448.000000 477.614437
  L 452.000000 479.789301
  L 456.000000 474.463721
  L 460.000000 474.618260
  L 464.000000 474.590561
  L 468.000000 475.157059
  L 472.000000 479.077457
  L 476.000000 480.594785
  L 480.000000 478.949444
  L 484.000000 481.275195
  L 488.000000 477.262033
  L 492.000000 477.304632
  L 496.000000 480.888304
  L 500.000000 479.700230
  L 504.000000 481.735659
  L 508.000000 480.793242
  L 512.000000 480.649992
  L 516.000000 481.413652
  L 520.000000 479.383984
  L 524.000000 478.735737
  L 528.000000 472.155855
  L 532.000000 484.669442
  L 536.000000 479.143338
  L 540.000000 481.096516
  L 544.000000 477.668780
  L 548.000000 480.339704
  L 552.000000 477.669247
  L 556.000000 478.450027
  L 560.000000 483.788829
  L 564.000000 480.032015
  L 568.000000 475.837630
  L 572.000000 482.758279
  L 576.000000 479.077100
  L 580.000000 475.762660
" stroke="rgb(248,118,109)" stroke-width="2" fill-opacity="0"/>
<path d="M 84.000000 483.434143
  L 88.000000 475.987350
  L 92.000000 479.549777
  L 96.000000 475.789441
  L 100.000000 479.714350
  L 104.000000 481.078391
  L 108.000000 483.879619
  L 112.000000 481.157952
  L 116.000000 479.471661
  L 120.000000 476.031026
  L 124.000000 479.230014
  L 128.000000 487.342944
  L 132.000000 476.463352
  L 136.000000 476.602202
  L 140.000000 482.189961
  L 144.000000 477.122929
  L 148.000000 480.204735
  L 152.000000 483.545226
  L 156.000000 479.820851
  L 160.000000 484.009034
  L 164.000000 479.856056
  L 168.000000 477.932963
  L 172.000000 473.785963
  L 176.000000 482.314102
  L 180.000000 475.068530
  L 184.000000 475.699268
  L 188.000000 477.998894
  L 192.000000 481.625849
  L 196.000000 477.440130
  L 200.000000 479.357866
  L 204.000000 477.417467
  L 208.000000 480.117267
  L 212.000000 483.196479
  L 216.000000 482.283133
  L 220.000000 476.521515
  L 224.000000 482.914612
  L 228.000000 480.194466
  L 232.000000 487.043742
  L 236.000000 479.129645
  L 240.000000 474.116431
  L 244.000000 479.932123
  L 248.000000 475.172158
  L 252.000000 477.695311
  L 256.000000 487.580082
  L 260.000000 478.499060
  L 264.000000 478.838747
  L 268.000000 479.935343
  L 272.000000 482.178381
  L 276.000000 480.303202
  L 280.000000 476.604334
  L 284.000000 483.570175
  L 288.000000 478.231136
  L 292.000000 475.336198
  L 296.000000 477.118278
  L 300.000000 477.831097
  L 304.000000 480.227461
  L 308.000000 480.459497
  L 312.000000 480.355068
  L 316.000000 473.478104
  L 320.000000 477.424278
  L 324.000000 479.382716
  L 328.000000 475.882631
  L 332.000000 475.007433
  L 336.000000 481.539729
  L 340.000000 482.580578
  L 344.000000 476.188442
  L 348.000000 474.970338
  L 352.000000 477.387008
  L 356.000000 483.994567
  L 360.000000 476.154753
  L 364.000000 474.593676
  L 368.000000 485.396799
  L 372.000000 477.398428
  L 376.000000 480.433480
  L 380.000000 478.728987
  L 384.000000 476.335336
  L 388.000000 484.236558
  L 392.000000 471.295388
  L 396.000000 482.705146
  L 400.000000 474.671052
  L 404.000000 479.656201
  L 408.000000 477.408931
  L 412.000000 477.551353
  L 416.000000 477.292154
  L 420.000000 478.985776
  L 424.000000 478.670633
  L 428.000000 467.693703
  L 432.000000 475.827977
  L 436.000000 476.342214
  L 440.000000 476.591542
  L 444.000000 470.991000
  L 448.000000 477.952873
  L 452.000000 474.285862
  L 456.000000 477.465402
  L 460.000000 477.641116
  L 464.000000 475.381501
  L 468.000000 478.809830
  L 472.000000 477.160256
  L 476.000000 478.841235
  L 480.000000 469.985021
  L 484.000000 469.146981
  L 488.000000 462.351729
  L 492.000000 466.473779
  L 496.000000 457.086887
  L 500.000000 461.598218
  L 504.000000 452.305891
  L 508.000000 450.027570
  L 512.000000 448.320650
  L 516.000000 439.700349
  L 520.000000 429.469972
  L 524.000000 438.528237
" stroke="rgb(0,191,196)" stroke-width="2" fill-opacity="0"/>
<rect x="590" y="310" width="20" height="20" fill="rgb(248,118,109)" />
<text x="615" y="320" text-anchor="start" dominant-baseline="middle">#1</text>
<rect x="590" y="330" width="20" height="20" fill="rgb(0,191,196)" />
<text x="615" y="340" text-anchor="start" dominant-baseline="middle">#2</text>
</svg>
