<svg height="660" width="660"
    xmlns="http://www.w3.org/2000/svg"
    xmlns:xlink="http://www.w3.org/1999/xlink"
    xmlns:ev="http://www.w3.org/2001/xml-events">
<title>Original Top Strand</title>
<rect x="0" y="0" width="660" height="660" fill="white" />
<text x="330" y="20" text-anchor="middle">Original Top Strand</text>
<line x1="80" y1="80" x2="80" y2="580" stroke="black" />
<line x1="80" y1="580" x2="580" y2="580" stroke="black" />
<text x="15" y="330" transform="rotate(270 15, 330)" text-anchor="middle" dominant-baseline="text-before-edge">CpG/CHG/CHH Methylation %</text>
<text x="330" y="620" text-anchor="middle">Position along mapped read (5'->3' of + strand)</text>
<line x1="80" y1="580" x2="80" y2="585" stroke="black" />
<text x="80" y="600" text-anchor="middle">0</text>
<line x1="120.000000" y1="80" x2="120.000000" y2="580" stroke-dasharray="5 5" stroke="grey" />
<line x1="120.000000" y1="580" x2="120.000000" y2="585" stroke="black" />
<text x="120.000000" y="600" text-anchor="middle">10</text>
<line x1="160.000000" y1="80" x2="160.000000" y2="580" stroke-dasharray="5 5" stroke="grey" />
<line x1="160.000000" y1="580" x2="160.000000" y2="585" stroke="black" />
<text x="160.000000" y="600" text-anchor="middle">20</text>
<line x1="200.000000" y1="80" x2="200.000000" y2="580" stroke-dasharray="5 5" stroke="grey" />
<line x1="200.000000" y1="580" x2="200.000000" y2="585" stroke="black" />
<text x="200.000000" y="600" text-anchor="middle">30</text>
<line x1="240.000000" y1="80" x2="240.000000" y2="580" stroke-dasharray="5 5" stroke="grey" />
<line x1="240.000000" y1="580" x2="240.000000" y2="585" stroke="black" />
<text x="240.000000" y="600" text-anchor="middle">40</text>
<line x1="280.000000" y1="80" x2="280.000000" y2="580" stroke-dasharray="5 5" stroke="grey" />
<line x1="280.000000" y1="580" x2="280.000000" y2="585" stroke="black" />
<text x="280.000000" y="600" text-anchor="middle">50</text>
<line x1="320.000000" y1="80" x2="320.000000" y2="580" stroke-dasharray="5 5" stroke="grey" />
<line x1="320.000000" y1="580" x2="320.000000" y2="585" stroke="black" />
<text x="320.000000" y="600" text-anchor="middle">60</text>
<line x1="360.000000" y1="80" x2="360.000000" y2="580" stroke-dasharray="5 5" stroke="grey" />
<line x1="360.000000" y1="580" x2="360.000000" y2="585" stroke="black" />
<text x="360.000000" y="600" text-anchor="middle">70</text>
<line x1="400.000000" y1="80" x2="400.000000" y2="580" stroke-dasharray="5 5" stroke="grey" />
<line x1="400.000000" y1="580" x2="400.000000" y2="585" stroke="black" />
<text x="400.000000" y="600" text-anchor="middle">80</text>
<line x1="440.000000" y1="80" x2="440.000000" y2="580" stroke-dasharray="5 5" stroke="grey" />
<line x1="440.000000" y1="580" x2="440.000000" y2="585" stroke="black" />
<text x="440.000000" y="600" text-anchor="middle">90</text>
<line x1="480.000000" y1="80" x2="480.000000" y2="580" stroke-dasharray="5 5" stroke="grey" />
<line x1="480.000000" y1="580" x2="480.000000" y2="585" stroke="black" />
<text x="480.000000" y="600" text-anchor="middle">100</text>
<line x1="520.000000" y1="80" x2="520.000000" y2="580" stroke-dasharray="5 5" stroke="grey" />
<line x1="520.000000" y1="580" x2="520.000000" y2="585" stroke="black" />
<text x="520.000000" y="600" text-anchor="middle">110</text>
<line x1="560.000000" y1="80" x2="560.000000" y2="580" stroke-dasharray="5 5" stroke="grey" />
<line x1="560.000000" y1="580" x2="560.000000" y2="585" stroke="black" />
<text x="560.000000" y="600" text-anchor="middle">120</text>
<line x1="80" y1="580.000000" x2="75" y2="580.000000" stroke="black" />
<text x="55" y="580.000000" text-anchor="middle" dominant-baseline="middle">0.00</text>
<line x1="80" y1="80.000000" x2="75" y2="80.000000" stroke="black" />
<text x="55" y="80.000000" text-anchor="middle" dominant-baseline="middle">0.05</text>
<path d="M 84.000000 486.939510
  L 88.000000 493.808327
  L 92.000000 492.883170
  L 96.000000 490.780385
  L 100.000000 485.301388
  L 104.000000 490.008870
  L 108.000000 492.236470
  L 112.000000 489.133285
  L 116.000000 486.158650
  L 120.000000 488.661449
  L 124.000000 482.704562
  L 128.000000 490.335067
  L 132.000000 489.754872
  L 136.000000 483.434661
  L 140.000000 491.569968
  L 144.000000 484.653375
  L 148.000000 491.447235
  L 152.000000 484.296947
  L 156.000000 485.512293
  L 160.000000 489.322389
  L 164.000000 489.201010
  L 168.000000 491.519482
  L 172.000000 491.467158
  L 176.000000 489.076469
  L 180.000000 481.197926
  L 184.000000 488.413959
  L 188.000000 493.125593
  L 192.000000 488.274766
  L 196.000000 488.338753
  L 200.000000 488.496098
  L 204.000000 487.649582
  L 208.000000 492.799908
  L 212.000000 490.226864
  L 216.000000 488.610856
  L 220.000000 490.481784
  L 224.000000 490.182188
  L 228.000000 491.144459
  L 232.000000 486.557343
  L 236.000000 490.645800
  L 240.000000 491.348400
  L 244.000000 491.601346
  L 248.000000 489.739122
  L 252.000000 487.382843
  L 256.000000 490.080653
  L 260.000000 490.438467
  L 264.000000 490.662189
  L 268.000000 484.017017
  L 272.000000 492.572828
  L 276.000000 485.826279
  L 280.000000 487.545600
  L 284.000000 488.063101
  L 288.000000 489.762193
  L 292.000000 493.056030
  L 296.000000 489.368552
  L 300.000000 490.102959
  L 304.000000 489.228150
  L 308.000000 496.027840
  L 312.000000 489.659761
  L 316.000000 489.966968
  L 320.000000 490.181268
  L 324.000000 489.296849
  L 328.000000 488.086675
  L 332.000000 489.859797
  L 336.000000 491.310696
  L 340.000000 487.991951
  L 344.000000 494.624946
  L 348.000000 489.907996
  L 352.000000 489.520390
  L 356.000000 487.274084
  L 360.000000 484.069364
  L 364.000000 493.575934
  L 368.000000 484.970772
  L 372.000000 493.848179
  L 376.000000 491.140472
  L 380.000000 486.805820
  L 384.000000 484.356154
  L 388.000000 482.915263
  L 392.000000 488.046939
  L 396.000000 492.475890
  L 400.000000 490.299853
  L 404.000000 492.667412
  L 408.000000 490.637519
  L 412.000000 486.285186
  L 416.000000 489.127104
  L 420.000000 492.693194
  L 424.000000 486.630957
  L 428.000000 485.303141
  L 432.000000 484.469358
  L 436.000000 483.455555
  L 440.000000 482.062079
  L 444.000000 485.765741
  L 448.000000 482.259295
  L 452.000000 482.533071
  L 456.000000 483.167695
  L 460.000000 479.168602
  L 464.000000 484.465519
  L 468.000000 482.846958
  L 472.000000 483.368458
  L 476.000000 478.438889
  L 480.000000 473.523486
  L 484.000000 481.595842
  L 488.000000 483.476291
  L 492.000000 480.491863
  L 496.000000 476.528557
  L 500.000000 471.595153
  L 504.000000 472.730157
  L 508.000000 466.056687
  L 512.000000 467.656538
  L 516.000000 456.402233
  L 520.000000 459.863254
  L 524.000000 457.226657
  L 524.000000 432.734116
  L 520.000000 435.635238
  L 516.000000 431.952623
  L 512.000000 444.261528
  L 508.000000 442.503195
  L 504.000000 449.898092
  L 500.000000 448.676064
  L 496.000000 453.999287
  L 492.000000 458.499842
  L 488.000000 461.780953
  L 484.000000 459.654149
  L 480.000000 450.761034
  L 476.000000 456.300833
  L 472.000000 461.649029
  L 468.000000 461.022583
  L 464.000000 462.853433
  L 460.000000 456.999462
  L 456.000000 461.460835
  L 452.000000 460.742167
  L 448.000000 460.453253
  L 444.000000 464.260861
  L 440.000000 460.223710
  L 436.000000 461.721022
  L 432.000000 462.892816
  L 428.000000 463.751978
  L 424.000000 465.205302
  L 420.000000 471.943030
  L 416.000000 468.049366
  L 412.000000 464.851375
  L 408.000000 469.695356
  L 404.000000 471.959828
  L 400.000000 469.338973
  L 396.000000 471.819721
  L 392.000000 466.815358
  L 388.000000 461.186489
  L 384.000000 462.742641
  L 380.000000 465.431824
  L 376.000000 470.255614
  L 372.000000 473.224980
  L 368.000000 463.414448
  L 364.000000 472.985924
  L 360.000000 462.460704
  L 356.000000 465.971673
  L 352.000000 468.438392
  L 348.000000 468.915800
  L 344.000000 474.150033
  L 340.000000 466.794941
  L 336.000000 470.417430
  L 332.000000 468.880202
  L 328.000000 466.923101
  L 324.000000 468.234576
  L 320.000000 469.192833
  L 316.000000 468.940719
  L 312.000000 468.645754
  L 308.000000 475.679679
  L 304.000000 468.150015
  L 300.000000 469.096329
  L 296.000000 468.275274
  L 292.000000 472.367274
  L 288.000000 468.748123
  L 284.000000 466.823394
  L 280.000000 466.293472
  L 276.000000 464.358523
  L 272.000000 471.867181
  L 268.000000 462.350501
  L 264.000000 469.737761
  L 260.000000 469.461934
  L 256.000000 469.104671
  L 252.000000 466.117006
  L 248.000000 468.695870
  L 244.000000 470.776168
  L 240.000000 470.415471
  L 236.000000 469.693560
  L 232.000000 465.126694
  L 228.000000 470.272552
  L 224.000000 469.193968
  L 220.000000 469.527329
  L 216.000000 467.437846
  L 212.000000 469.237061
  L 208.000000 472.074966
  L 204.000000 466.385948
  L 200.000000 467.320389
  L 196.000000 467.138702
  L 192.000000 467.060000
  L 188.000000 472.465476
  L 184.000000 467.207483
  L 180.000000 459.225313
  L 176.000000 467.915601
  L 172.000000 470.622602
  L 168.000000 470.735176
  L 164.000000 468.092825
  L 160.000000 468.254147
  L 156.000000 464.054942
  L 152.000000 462.693242
  L 148.000000 470.622074
  L 144.000000 463.060367
  L 140.000000 470.701189
  L 136.000000 461.660724
  L 132.000000 468.703325
  L 128.000000 469.358451
  L 124.000000 460.928916
  L 120.000000 467.559182
  L 116.000000 464.731225
  L 112.000000 468.033248
  L 108.000000 471.500022
  L 104.000000 469.016238
  L 100.000000 463.738133
  L 96.000000 469.859527
  L 92.000000 472.141275
  L 88.000000 473.249072
  L 84.000000 465.584245
Z" fill="rgb(248,118,109)" fill-opacity="0.2"/>
<path d="M 140.000000 442.977506
  L 144.000000 437.586183
  L 148.000000 449.840929
  L 152.000000 462.955494
  L 156.000000 459.753360
  L 160.000000 471.295283
  L 164.000000 466.412722
  L 168.000000 473.026862
  L 172.000000 469.894250
  L 176.000000 475.405386
  L 180.000000 479.450303
  L 184.000000 483.616910
  L 188.000000 477.901491
  L 192.000000 484.831564
  L 196.000000 481.668030
  L 200.000000 487.457594
  L 204.000000 487.844235
  L 208.000000 484.455044
  L 212.000000 482.314986
  L 216.000000 487.322837
  L 220.000000 487.678743
  L 224.000000 488.729201
  L 228.000000 488.959837
  L 232.000000 486.239807
  L 236.000000 485.847619
  L 240.000000 493.171991
  L 244.000000 487.216391
  L 248.000000 487.039616
  L 252.000000 490.778730
  L 256.000000 490.413746
  L 260.000000 490.084503
  L 264.000000 489.888312
  L 268.000000 488.466502
  L 272.000000 491.742310
  L 276.000000 488.202986
  L 280.000000 487.802222
  L 284.000000 488.092810
  L 288.000000 486.191909
  L 292.000000 496.850013
  L 296.000000 483.040115
  L 300.000000 488.071031
  L 304.000000 489.984384
  L 308.000000 491.617869
  L 312.000000 486.852499
  L 316.000000 496.471631
  L 320.000000 491.178097
  L 324.000000 490.013788
  L 328.000000 490.362075
  L 332.000000 486.640109
  L 336.000000 488.305237
  L 340.000000 490.026663
  L 344.000000 488.993881
  L 348.000000 490.461441
  L 352.000000 491.064276
  L 356.000000 485.011115
  L 360.000000 493.801126
  L 364.000000 485.473280
  L 368.000000 485.907950
  L 372.000000 485.031281
  L 376.000000 488.658653
  L 380.000000 492.198305
  L 384.000000 486.835864
  L 388.000000 493.467254
  L 392.000000 487.985181
  L 396.000000 486.989211
  L 400.000000 489.699551
  L 404.000000 486.407528
  L 408.000000 488.265518
  L 412.000000 493.525532
  L 416.000000 492.272503
  L 420.000000 493.669211
  L 424.000000 491.287772
  L 428.000000 488.813944
  L 432.000000 492.186321
  L 436.000000 488.421098
  L 440.000000 492.160592
  L 444.000000 490.286492
  L 448.000000 488.842825
  L 452.000000 484.946577
  L 456.000000 487.161351
  L 460.000000 483.749594
  L 464.000000 488.438779
  L 468.000000 492.417469
  L 472.000000 486.833916
  L 476.000000 494.136756
  L 480.000000 489.007842
  L 484.000000 495.639722
  L 488.000000 491.561858
  L 492.000000 492.259694
  L 496.000000 494.536673
  L 500.000000 490.508380
  L 504.000000 488.121452
  L 508.000000 486.711554
  L 512.000000 492.716134
  L 516.000000 485.442996
  L 520.000000 487.362216
  L 524.000000 488.689244
  L 528.000000 493.076740
  L 532.000000 491.551243
  L 536.000000 490.436435
  L 540.000000 490.155096
  L 544.000000 487.437831
  L 548.000000 489.141968
  L 552.000000 490.171141
  L 556.000000 488.231151
  L 560.000000 490.147685
  L 564.000000 488.020342
  L 568.000000 493.557267
  L 572.000000 491.569453
  L 576.000000 483.903247
  L 580.000000 485.433347
  L 580.000000 463.981331
  L 576.000000 462.245872
  L 572.000000 470.844473
  L 568.000000 473.011345
  L 564.000000 466.806284
  L 560.000000 469.163402
  L 556.000000 467.053656
  L 552.000000 469.180354
  L 548.000000 468.067658
  L 544.000000 466.231268
  L 540.000000 469.220150
  L 536.000000 469.507290
  L 532.000000 470.750406
  L 528.000000 472.429375
  L 524.000000 467.581586
  L 520.000000 466.115088
  L 516.000000 463.993157
  L 512.000000 472.056309
  L 508.000000 465.374688
  L 504.000000 467.012590
  L 500.000000 469.678889
  L 496.000000 474.089584
  L 492.000000 471.504541
  L 488.000000 470.787450
  L 484.000000 475.247720
  L 480.000000 467.914450
  L 476.000000 473.594506
  L 472.000000 465.489801
  L 468.000000 471.711502
  L 464.000000 467.355812
  L 460.000000 462.126767
  L 456.000000 465.868421
  L 452.000000 463.477178
  L 448.000000 467.723251
  L 444.000000 469.370133
  L 440.000000 471.442447
  L 436.000000 467.334084
  L 432.000000 471.450150
  L 428.000000 467.711370
  L 424.000000 470.437340
  L 420.000000 473.089139
  L 416.000000 471.628441
  L 412.000000 472.923580
  L 408.000000 467.107680
  L 404.000000 465.024928
  L 400.000000 468.753837
  L 396.000000 465.692156
  L 392.000000 466.821819
  L 388.000000 472.875815
  L 384.000000 465.562168
  L 380.000000 471.501005
  L 376.000000 467.555744
  L 372.000000 463.511784
  L 368.000000 464.505222
  L 364.000000 464.018705
  L 360.000000 473.300787
  L 356.000000 463.521722
  L 352.000000 470.197642
  L 348.000000 469.490259
  L 344.000000 467.897271
  L 340.000000 469.061961
  L 336.000000 467.144740
  L 332.000000 465.321975
  L 328.000000 469.451372
  L 324.000000 469.117054
  L 320.000000 470.349975
  L 316.000000 476.230440
  L 312.000000 465.547682
  L 308.000000 470.844589
  L 304.000000 469.009885
  L 300.000000 466.880374
  L 296.000000 461.350509
  L 292.000000 476.650688
  L 288.000000 464.807011
  L 284.000000 466.895369
  L 280.000000 466.620442
  L 276.000000 467.019028
  L 272.000000 471.021975
  L 268.000000 467.354754
  L 264.000000 468.915315
  L 260.000000 469.133202
  L 256.000000 469.491248
  L 252.000000 469.905324
  L 248.000000 465.730650
  L 244.000000 465.936012
  L 240.000000 472.474038
  L 236.000000 464.442840
  L 232.000000 464.865764
  L 228.000000 467.902612
  L 224.000000 467.618937
  L 220.000000 466.457043
  L 216.000000 465.984408
  L 212.000000 460.532668
  L 208.000000 462.863744
  L 204.000000 466.636911
  L 200.000000 466.208822
  L 196.000000 459.810669
  L 192.000000 463.301793
  L 188.000000 455.702467
  L 184.000000 461.941505
  L 180.000000 457.320210
  L 176.000000 452.868205
  L 172.000000 446.845469
  L 168.000000 450.344136
  L 164.000000 443.006343
  L 160.000000 448.334889
  L 156.000000 435.700019
  L 152.000000 439.223305
  L 148.000000 424.862952
  L 144.000000 411.511327
  L 140.000000 417.369999
Z" fill="rgb(0,191,196)" fill-opacity="0.2"/>
<path d="M 84.000000 476.805695
  L 88.000000 484.071104
  L 92.000000 483.058494
  L 96.000000 480.863349
  L 100.000000 475.064967
  L 104.000000 480.055241
  L 108.000000 482.410611
  L 112.000000 479.126445
  L 116.000000 475.988113
  L 120.000000 478.651060
  L 124.000000 472.358695
  L 128.000000 480.390445
  L 132.000000 479.773285
  L 136.000000 473.093291
  L 140.000000 481.680776
  L 144.000000 474.400131
  L 148.000000 481.577016
  L 152.000000 474.037026
  L 156.000000 475.324850
  L 160.000000 479.330919
  L 164.000000 479.190861
  L 168.000000 481.668076
  L 172.000000 481.588309
  L 176.000000 479.041875
  L 180.000000 470.755267
  L 184.000000 478.355202
  L 188.000000 483.339102
  L 192.000000 478.211519
  L 196.000000 478.282492
  L 200.000000 478.451670
  L 204.000000 477.560926
  L 208.000000 482.982393
  L 212.000000 480.275702
  L 216.000000 478.568264
  L 220.000000 480.547959
  L 224.000000 480.231496
  L 228.000000 481.251497
  L 232.000000 476.387451
  L 236.000000 480.713875
  L 240.000000 481.429072
  L 244.000000 481.731974
  L 248.000000 479.761190
  L 252.000000 477.291773
  L 256.000000 480.134925
  L 260.000000 480.494450
  L 264.000000 480.742893
  L 268.000000 473.727240
  L 272.000000 482.762725
  L 276.000000 475.635771
  L 280.000000 477.461586
  L 284.000000 477.987459
  L 288.000000 479.797550
  L 292.000000 483.256253
  L 296.000000 479.366037
  L 300.000000 480.143531
  L 304.000000 479.231706
  L 308.000000 486.398335
  L 312.000000 479.694589
  L 316.000000 479.997949
  L 320.000000 480.230474
  L 324.000000 479.307934
  L 328.000000 478.045533
  L 332.000000 479.911236
  L 336.000000 481.409029
  L 340.000000 477.935206
  L 344.000000 484.930333
  L 348.000000 479.954014
  L 352.000000 479.523790
  L 356.000000 477.165917
  L 360.000000 473.806033
  L 364.000000 483.823550
  L 368.000000 474.735763
  L 372.000000 484.082409
  L 376.000000 481.241651
  L 380.000000 476.662836
  L 384.000000 474.092101
  L 388.000000 472.591685
  L 392.000000 477.974878
  L 396.000000 482.687532
  L 400.000000 480.362134
  L 404.000000 482.856967
  L 408.000000 480.710092
  L 412.000000 476.112429
  L 416.000000 479.130293
  L 420.000000 482.863721
  L 424.000000 476.463711
  L 428.000000 475.072196
  L 432.000000 474.222613
  L 436.000000 473.132122
  L 440.000000 471.684566
  L 444.000000 475.558137
  L 448.000000 471.897415
  L 452.000000 472.179428
  L 456.000000 472.855319
  L 460.000000 468.626808
  L 464.000000 474.202676
  L 468.000000 472.479756
  L 472.000000 473.051415
  L 476.000000 467.907643
  L 480.000000 462.685295
  L 484.000000 471.169186
  L 488.000000 473.170702
  L 492.000000 470.036893
  L 496.000000 465.810538
  L 500.000000 460.676813
  L 504.000000 461.856627
  L 508.000000 454.824569
  L 512.000000 456.503724
  L 516.000000 444.720064
  L 520.000000 448.296686
  L 524.000000 445.528215
" stroke="rgb(248,118,109)" stroke-width="2" fill-opacity="0"/>
<path d="M 140.000000 430.712578
  L 144.000000 425.086895
  L 148.000000 437.890800
  L 152.000000 451.628458
  L 156.000000 448.266170
  L 160.000000 460.356777
  L 164.000000 455.249246
  L 168.000000 462.222629
  L 172.000000 458.909161
  L 176.000000 464.678410
  L 180.000000 468.927598
  L 184.000000 473.321060
  L 188.000000 467.339983
  L 192.000000 474.607843
  L 196.000000 471.279936
  L 200.000000 477.374629
  L 204.000000 477.782044
  L 208.000000 474.201549
  L 212.000000 471.964131
  L 216.000000 477.198664
  L 220.000000 477.609179
  L 224.000000 478.715566
  L 228.000000 478.971382
  L 232.000000 476.093822
  L 236.000000 475.685691
  L 240.000000 483.368731
  L 244.000000 477.117870
  L 248.000000 476.927246
  L 252.000000 480.883079
  L 256.000000 480.493958
  L 260.000000 480.149928
  L 264.000000 479.942883
  L 268.000000 478.450789
  L 272.000000 481.920968
  L 276.000000 478.153261
  L 280.000000 477.751344
  L 284.000000 478.036408
  L 288.000000 476.040767
  L 292.000000 487.292198
  L 296.000000 472.734903
  L 300.000000 478.017576
  L 304.000000 480.038800
  L 308.000000 481.771976
  L 312.000000 476.741016
  L 316.000000 486.892789
  L 320.000000 481.305057
  L 324.000000 480.103446
  L 328.000000 480.447325
  L 332.000000 476.521491
  L 336.000000 478.266652
  L 340.000000 480.085728
  L 344.000000 478.987834
  L 348.000000 480.519963
  L 352.000000 481.173248
  L 356.000000 474.806585
  L 360.000000 484.090383
  L 364.000000 475.286889
  L 368.000000 475.747264
  L 372.000000 474.813240
  L 376.000000 478.647960
  L 380.000000 482.389871
  L 384.000000 476.738356
  L 388.000000 483.713612
  L 392.000000 477.943594
  L 396.000000 476.881955
  L 400.000000 479.765408
  L 404.000000 476.258556
  L 408.000000 478.227920
  L 412.000000 483.767488
  L 416.000000 482.488470
  L 420.000000 483.921829
  L 424.000000 481.405282
  L 428.000000 478.804236
  L 432.000000 482.360307
  L 436.000000 478.416310
  L 440.000000 482.342555
  L 444.000000 480.368778
  L 448.000000 478.825599
  L 452.000000 474.750758
  L 456.000000 477.056869
  L 460.000000 473.478217
  L 464.000000 478.435913
  L 468.000000 482.606352
  L 472.000000 476.704579
  L 476.000000 484.409056
  L 480.000000 479.003322
  L 484.000000 485.988251
  L 488.000000 481.715147
  L 492.000000 482.425539
  L 496.000000 484.854072
  L 500.000000 480.631059
  L 504.000000 478.105203
  L 508.000000 476.584847
  L 512.000000 482.927471
  L 516.000000 475.258590
  L 520.000000 477.279488
  L 524.000000 478.676571
  L 528.000000 483.295715
  L 532.000000 481.692562
  L 536.000000 480.513774
  L 540.000000 480.228283
  L 544.000000 477.373828
  L 548.000000 479.146784
  L 552.000000 480.219231
  L 556.000000 478.184495
  L 560.000000 480.198579
  L 564.000000 477.956050
  L 568.000000 483.824625
  L 572.000000 481.745064
  L 576.000000 473.617021
  L 580.000000 475.247906
" stroke="rgb(0,191,196)" stroke-width="2" fill-opacity="0"/>
<rect x="590" y="310" width="20" height="20" fill="rgb(248,118,109)" />
<text x="615" y="320" text-anchor="start" dominant-baseline="middle">#1</text>
<rect x="590" y="330" width="20" height="20" fill="rgb(0,191,196)" />
<text x="615" y="340" text-anchor="start" dominant-baseline="middle">#2</text>
</svg>
